<svg width="30" height="30" viewBox="0 0 30 30" fill="none" xmlns="http://www.w3.org/2000/svg">
<g clip-path="url(#clip0_20_9)">
<path d="M27.8915 5.90045H7.13305C6.88984 5.90045 6.69266 6.09757 6.69266 6.34084C6.69266 6.58412 6.88984 6.78124 7.13305 6.78124H27.8915C28.5685 6.78124 29.1193 7.33202 29.1193 8.00905V17.3859C29.1193 18.063 28.5685 18.6137 27.8915 18.6137H26.8369V15.7443C26.8369 15.5011 26.6398 15.3039 26.3965 15.3039H3.60346C3.36025 15.3039 3.16307 15.5011 3.16307 15.7443V18.6137H2.10859C1.43157 18.6137 0.880783 18.063 0.880783 17.3859V8.00905C0.880783 7.33202 1.43157 6.78124 2.10859 6.78124H5.37148C5.6147 6.78124 5.81188 6.58412 5.81188 6.34084C5.81188 6.09757 5.6147 5.90045 5.37148 5.90045H2.10859C0.945902 5.90045 0 6.84635 0 8.00905V17.3859C0 18.5486 0.945902 19.4945 2.10859 19.4945H6.69284C6.93605 19.4945 7.13323 19.2974 7.13323 19.0541C7.13323 18.8109 6.93605 18.6137 6.69284 18.6137H4.04385V17.8396H21.5457C21.7889 17.8396 21.986 17.6425 21.986 17.3992C21.986 17.1559 21.7889 16.9588 21.5457 16.9588H4.04385V16.1847H25.9561V16.9588H23.3072C23.064 16.9588 22.8668 17.1559 22.8668 17.3992C22.8668 17.6425 23.064 17.8396 23.3072 17.8396H25.9561V18.6137H8.45434C8.21113 18.6137 8.01395 18.8109 8.01395 19.0541C8.01395 19.2974 8.21113 19.4945 8.45434 19.4945H27.8915C29.0542 19.4945 30.0001 18.5486 30.0001 17.3859V8.00905C30 6.84641 29.0541 5.90045 27.8915 5.90045Z" fill="#393939"/>
<path d="M26.3966 9.48119C26.6398 9.48119 26.837 9.28407 26.837 9.0408C26.837 8.79752 26.6398 8.6004 26.3966 8.6004H25.0942C24.851 8.6004 24.6538 8.79752 24.6538 9.0408C24.6538 9.28407 24.851 9.48119 25.0942 9.48119H26.3966Z" fill="#393939"/>
<path d="M23.0845 9.48119C23.3277 9.48119 23.5249 9.28407 23.5249 9.0408C23.5249 8.79752 23.3277 8.6004 23.0845 8.6004H14.749C14.5058 8.6004 14.3086 8.79752 14.3086 9.0408C14.3086 9.28407 14.5058 9.48119 14.749 9.48119H23.0845Z" fill="#393939"/>
<path d="M8.28439 20.6728C8.04118 20.6728 7.844 20.8699 7.844 21.1132C7.844 21.1263 7.82985 22.4318 6.60814 23.3002C6.40991 23.441 6.3634 23.716 6.50433 23.9142C6.59023 24.0351 6.72587 24.0996 6.86369 24.0996C6.95194 24.0996 7.04108 24.0731 7.11847 24.0181C8.70658 22.8892 8.72484 21.1851 8.72484 21.1131C8.72478 20.8699 8.52761 20.6728 8.28439 20.6728Z" fill="#393939"/>
<path d="M11.4375 20.6728C11.1942 20.6728 10.9971 20.8699 10.9971 21.1132V23.6591C10.9971 23.9024 11.1942 24.0995 11.4375 24.0995C11.6807 24.0995 11.8779 23.9024 11.8779 23.6591V21.1132C11.8779 20.8699 11.6807 20.6728 11.4375 20.6728Z" fill="#393939"/>
<path d="M15.124 20.6728C14.8808 20.6728 14.6836 20.8699 14.6836 21.1132V23.6591C14.6836 23.9024 14.8808 24.0995 15.124 24.0995C15.3672 24.0995 15.5644 23.9024 15.5644 23.6591V21.1132C15.5644 20.8699 15.3672 20.6728 15.124 20.6728Z" fill="#393939"/>
<path d="M23.392 23.3002C22.1868 22.4435 22.1568 21.1698 22.1562 21.1112C22.1551 20.8689 21.9584 20.6728 21.7158 20.6728C21.4726 20.6728 21.2754 20.8699 21.2754 21.1132C21.2754 21.1852 21.2937 22.8893 22.8818 24.0181C22.9592 24.0731 23.0483 24.0996 23.1365 24.0996C23.2743 24.0996 23.41 24.0351 23.4959 23.9143C23.6368 23.716 23.5903 23.441 23.392 23.3002Z" fill="#393939"/>
<path d="M18.5625 20.6728C18.3192 20.6728 18.1221 20.8699 18.1221 21.1132V23.6591C18.1221 23.9024 18.3192 24.0995 18.5625 24.0995C18.8057 24.0995 19.0028 23.9024 19.0028 23.6591V21.1132C19.0028 20.8699 18.8057 20.6728 18.5625 20.6728Z" fill="#393939"/>
</g>
<defs>
<clipPath id="clip0_20_9">
<rect width="30" height="30" fill="white"/>
</clipPath>
</defs>
</svg>
