<svg width="30" height="30" viewBox="0 0 30 30" fill="none" xmlns="http://www.w3.org/2000/svg">
<g clip-path="url(#clip0_20_20)">
<path d="M7.4707 1.8457H5.12695C2.30003 1.8457 0 4.14574 0 6.97266V26.3086C0 27.5203 0.985565 28.5059 2.19727 28.5059H10.4004C11.6121 28.5059 12.5977 27.5203 12.5977 26.3086V6.97266C12.5977 4.14574 10.2976 1.8457 7.4707 1.8457ZM4.64653 2.75253C4.38332 4.69528 2.84958 6.22902 0.90683 6.49223C1.12839 4.533 2.6873 2.97409 4.64653 2.75253ZM0.878906 14.2383C0.878906 13.4372 1.05377 12.6762 1.36711 11.9913L2.52251 13.6354C2.40898 13.83 2.34375 14.0559 2.34375 14.2969V20.7422C2.34375 20.9427 2.38907 21.1329 2.46941 21.3032L1.12839 23.2118C0.971603 22.9948 0.878906 22.7289 0.878906 22.4414V14.2383ZM3.66211 22.0605H8.93555C9.13651 22.0605 9.32693 22.0152 9.49745 21.9344L10.7474 23.7131C10.6368 23.7433 10.5206 23.7598 10.4004 23.7598H2.19727C2.0771 23.7598 1.96083 23.7433 1.85028 23.7131L3.1002 21.9344C3.27072 22.0152 3.46115 22.0605 3.66211 22.0605ZM3.22266 20.7422V14.2969C3.22266 14.0545 3.41972 13.8574 3.66211 13.8574H8.93555C9.17793 13.8574 9.375 14.0545 9.375 14.2969V20.7422C9.375 20.9846 9.17793 21.1816 8.93555 21.1816H3.66211C3.41972 21.1816 3.22266 20.9846 3.22266 20.7422ZM9.40247 13.0641C9.25713 13.009 9.09988 12.9785 8.93555 12.9785H3.66211C3.49777 12.9785 3.34053 13.009 3.19519 13.0641L1.84891 11.1481C2.82875 9.74098 4.45793 8.81836 6.29883 8.81836C8.13972 8.81836 9.76891 9.74098 10.7487 11.1481L9.40247 13.0641ZM11.7188 26.3086C11.7188 27.0355 11.1273 27.627 10.4004 27.627H2.19727C1.47034 27.627 0.878906 27.0355 0.878906 26.3086V24.1981C1.24649 24.4746 1.70288 24.6387 2.19727 24.6387H10.4004C10.8948 24.6387 11.3512 24.4746 11.7188 24.1981V26.3086ZM11.7188 22.4414C11.7188 22.7289 11.6261 22.9948 11.4693 23.2116L10.1283 21.3032C10.2086 21.1329 10.2539 20.9427 10.2539 20.7422V14.2969C10.2539 14.0559 10.1887 13.83 10.0751 13.6354L11.2305 11.9913C11.5439 12.6762 11.7188 13.4372 11.7188 14.2383V22.4414ZM11.7188 11.0326C10.6203 9.18251 8.60207 7.93945 6.29883 7.93945C3.99559 7.93945 1.97731 9.18251 0.878906 11.0326V7.38029C3.33046 7.118 5.27229 5.17616 5.53482 2.72461H7.23839C7.36313 3.88252 7.86713 4.96536 8.68423 5.81017C9.50157 6.65543 10.567 7.19536 11.7188 7.35832V11.0326ZM8.13126 2.77634C9.9955 3.06862 11.4603 4.57787 11.6872 6.46271C9.84901 6.13037 8.39859 4.62662 8.13126 2.77634Z" fill="#393939"/>
<path d="M24.873 1.8457H22.5293C19.7024 1.8457 17.4023 4.14574 17.4023 6.97266V26.3086C17.4023 27.5203 18.3879 28.5059 19.5996 28.5059H27.8027C29.0144 28.5059 30 27.5203 30 26.3086V6.97266C30 4.14574 27.7 1.8457 24.873 1.8457ZM29.0895 6.46271C27.2514 6.13037 25.8009 4.62662 25.5336 2.77634C27.3978 3.06862 28.8627 4.57787 29.0895 6.46271ZM22.0489 2.75253C21.7857 4.69528 20.2519 6.22902 18.3092 6.49223C18.5307 4.533 20.0896 2.97409 22.0489 2.75253ZM18.2812 14.2383C18.2812 13.4372 18.4561 12.6762 18.7695 11.9913L19.9249 13.6354C19.8113 13.83 19.7461 14.0559 19.7461 14.2969V20.7422C19.7461 20.9427 19.7914 21.1329 19.8717 21.3032L18.5307 23.2118C18.3739 22.9948 18.2812 22.7289 18.2812 22.4414V14.2383ZM21.0645 22.0605H26.3379C26.5388 22.0605 26.7293 22.0152 26.8998 21.9344L28.1497 23.7131C28.0392 23.7433 27.9229 23.7598 27.8027 23.7598H19.5996C19.4794 23.7598 19.3632 23.7433 19.2526 23.7131L20.5025 21.9344C20.6731 22.0152 20.8635 22.0605 21.0645 22.0605ZM20.625 20.7422V14.2969C20.625 14.0545 20.8221 13.8574 21.0645 13.8574H26.3379C26.5803 13.8574 26.7773 14.0545 26.7773 14.2969V20.7422C26.7773 20.9846 26.5803 21.1816 26.3379 21.1816H21.0645C20.8221 21.1816 20.625 20.9846 20.625 20.7422ZM26.8048 13.0641C26.6595 13.009 26.5022 12.9785 26.3379 12.9785H21.0645C20.9001 12.9785 20.7429 13.009 20.5975 13.0641L19.2513 11.1481C20.2311 9.74098 21.8603 8.81836 23.7012 8.81836C25.5421 8.81836 27.1712 9.74098 28.1511 11.1481L26.8048 13.0641ZM29.1211 26.3086C29.1211 27.0355 28.5297 27.627 27.8027 27.627H19.5996C18.8727 27.627 18.2812 27.0355 18.2812 26.3086V24.1981C18.6488 24.4746 19.1052 24.6387 19.5996 24.6387H27.8027C28.2971 24.6387 28.7535 24.4746 29.1211 24.1981V26.3086ZM29.1211 22.4414C29.1211 22.7289 29.0284 22.9948 28.8716 23.2116L27.5306 21.3032C27.6109 21.1329 27.6562 20.9427 27.6562 20.7422V14.2969C27.6562 14.0559 27.591 13.83 27.4775 13.6354L28.6329 11.9913C28.9462 12.6762 29.1211 13.4372 29.1211 14.2383V22.4414ZM29.1211 11.0326C28.0227 9.18251 26.0044 7.93945 23.7012 7.93945C21.3979 7.93945 19.3797 9.18251 18.2812 11.0326V7.38029C20.7328 7.118 22.6746 5.17616 22.9372 2.72461H24.6407C24.7655 3.88252 25.2695 4.96536 26.0866 5.81017C26.9039 6.65543 27.9694 7.19536 29.1211 7.35832V11.0326Z" fill="#393939"/>
<path d="M14.5898 29.1211H15.4688V30H14.5898V29.1211Z" fill="#393939"/>
<path d="M14.5898 1.75781H15.4688V28.2422H14.5898V1.75781Z" fill="#393939"/>
<path d="M14.5898 0H15.4688V0.878906H14.5898V0Z" fill="#393939"/>
<path d="M1.72852 25.8691H2.60742V26.748H1.72852V25.8691Z" fill="#393939"/>
<path d="M9.99023 25.8691H10.8691V26.748H9.99023V25.8691Z" fill="#393939"/>
<path d="M19.248 25.8691H20.127V26.748H19.248V25.8691Z" fill="#393939"/>
<path d="M27.5098 25.8691H28.3887V26.748H27.5098V25.8691Z" fill="#393939"/>
</g>
<defs>
<clipPath id="clip0_20_20">
<rect width="30" height="30" fill="white"/>
</clipPath>
</defs>
</svg>
