<svg width="30" height="30" viewBox="0 0 30 30" fill="none" xmlns="http://www.w3.org/2000/svg">
<path d="M26.7188 16.875V1.40625C26.7187 1.28193 26.6694 1.1627 26.5815 1.0748C26.4935 0.986888 26.3743 0.937501 26.25 0.9375H15.9375C15.8647 0.937498 15.793 0.954444 15.7279 0.986996L15 1.35092L14.2721 0.986996C14.207 0.954444 14.1353 0.937498 14.0625 0.9375H4.21875C4.09443 0.937501 3.9752 0.986888 3.8873 1.0748C3.79939 1.1627 3.75 1.28193 3.75 1.40625V16.875C3.75 16.9478 3.76694 17.0196 3.7995 17.0847L4.16342 17.8125L3.7995 18.5403C3.76694 18.6054 3.75 18.6772 3.75 18.75V27.1875C3.75 27.3118 3.79939 27.431 3.8873 27.519C3.9752 27.6069 4.09443 27.6562 4.21875 27.6562H5.28714L5.64906 28.742C5.68017 28.8353 5.73986 28.9165 5.81967 28.974C5.89949 29.0316 5.99537 29.0625 6.09375 29.0625H7.5C7.59838 29.0625 7.69427 29.0316 7.77408 28.974C7.85389 28.9165 7.91358 28.8353 7.94469 28.742L8.30661 27.6562H22.1621L22.5241 28.742C22.5552 28.8353 22.6149 28.9165 22.6947 28.974C22.7745 29.0316 22.8704 29.0625 22.9688 29.0625H24.375C24.4734 29.0625 24.5693 29.0316 24.6491 28.974C24.7289 28.9165 24.7886 28.8353 24.8197 28.742L25.1816 27.6562H26.25C26.3743 27.6562 26.4935 27.6069 26.5815 27.519C26.6694 27.431 26.7187 27.3118 26.7188 27.1875V18.75C26.7188 18.6772 26.7018 18.6054 26.6693 18.5403L26.3053 17.8125L26.6693 17.0847C26.7018 17.0196 26.7188 16.9478 26.7188 16.875ZM20.4434 18.2812L20.2871 18.75H9.71286L9.55661 18.2812H20.4434ZM15.4688 3.9316L15.9375 4.08783V15.1309L15.4688 15.2871V3.9316ZM14.5312 15.2871L14.0625 15.1309V4.08783L14.5312 3.9316V15.2871ZM4.6875 1.875H13.9518L14.5312 2.16469V2.94338L13.4455 3.30528C13.3522 3.3364 13.271 3.39609 13.2135 3.47591C13.156 3.55572 13.125 3.65162 13.125 3.75V15.4688C13.125 15.5671 13.156 15.663 13.2135 15.7428C13.271 15.8227 13.3522 15.8823 13.4455 15.9135L14.5312 16.2754V17.3438H4.97721L4.6875 16.7643V1.875ZM7.16214 28.125H6.43161L6.27536 27.6562H7.31839L7.16214 28.125ZM24.0371 28.125H23.3066L23.1504 27.6562H24.1934L24.0371 28.125ZM25.7812 26.7188H4.6875V18.8607L4.97721 18.2812H8.56839L8.93031 19.367C8.96142 19.4603 9.02111 19.5415 9.10092 19.599C9.18073 19.6566 9.27662 19.6875 9.375 19.6875H20.625C20.7234 19.6875 20.8193 19.6566 20.8991 19.599C20.9789 19.5415 21.0386 19.4603 21.0697 19.367L21.4316 18.2812H25.4915L25.7812 18.8607V26.7188ZM25.7812 16.7643L25.4915 17.3438H15.4688V16.2754L16.5545 15.9135C16.6478 15.8823 16.729 15.8227 16.7865 15.7428C16.844 15.663 16.875 15.5671 16.875 15.4688V3.75C16.875 3.65162 16.844 3.55572 16.7865 3.47591C16.729 3.39609 16.6478 3.3364 16.5545 3.30528L15.4688 2.94338V2.16469L16.0482 1.875H25.7812V16.7643Z" fill="#393939"/>
<path d="M6.5625 15.9375H11.25C11.3743 15.9375 11.4935 15.8881 11.5815 15.8002C11.6694 15.7123 11.7187 15.5931 11.7188 15.4688V10.7812C11.7187 10.6569 11.6694 10.5377 11.5815 10.4498C11.4935 10.3619 11.3743 10.3125 11.25 10.3125H6.5625C6.43818 10.3125 6.31895 10.3619 6.23105 10.4498C6.14314 10.5377 6.09375 10.6569 6.09375 10.7812V15.4688C6.09375 15.5931 6.14314 15.7123 6.23105 15.8002C6.31895 15.8881 6.43818 15.9375 6.5625 15.9375ZM7.03125 15V13.125H8.4375V14.0625H9.375V13.125H10.7812V15H7.03125ZM10.7812 11.25V12.1875H7.03125V11.25H10.7812Z" fill="#393939"/>
<path d="M6.5625 9.375H11.25C11.3743 9.375 11.4935 9.32561 11.5815 9.2377C11.6694 9.1498 11.7187 9.03057 11.7188 8.90625V5.15625C11.7187 5.03193 11.6694 4.9127 11.5815 4.8248C11.4935 4.73689 11.3743 4.6875 11.25 4.6875H6.5625C6.43818 4.6875 6.31895 4.73689 6.23105 4.8248C6.14314 4.9127 6.09375 5.03193 6.09375 5.15625V8.90625C6.09375 9.03057 6.14314 9.1498 6.23105 9.2377C6.31895 9.32561 6.43818 9.375 6.5625 9.375ZM7.03125 5.625H10.7812V8.4375H7.03125V5.625Z" fill="#393939"/>
<path d="M11.25 2.8125H10.3125V3.75H11.25V2.8125Z" fill="#393939"/>
<path d="M9.84375 2.8125H8.90625V3.75H9.84375V2.8125Z" fill="#393939"/>
<path d="M22.9688 15.4688H22.0312V16.4062H22.9688V15.4688Z" fill="#393939"/>
<path d="M24.8438 15.4688H23.9062V16.4062H24.8438V15.4688Z" fill="#393939"/>
</svg>
