<svg width="30" height="30" viewBox="0 0 30 30" fill="none" xmlns="http://www.w3.org/2000/svg">
<g clip-path="url(#clip0_20_32)">
<path d="M29.5342 9.97323C30.2426 10.8527 30.1395 12.2262 29.2506 12.9603C28.435 13.6336 27.3012 13.4848 26.6549 12.6814C23.6995 9.00878 19.4684 6.90233 15.0463 6.90233H14.9795C10.5311 6.92343 6.29535 9.06971 3.35746 12.791C2.71351 13.6072 1.57855 13.7537 0.766443 13.0957C-0.138244 12.3627 -0.241369 10.9892 0.453552 10.1098C4.00902 5.608 9.20043 2.80311 14.9602 2.77557H15.044C17.8325 2.77557 20.526 3.41893 23.0502 4.6869C23.267 4.79589 23.3543 5.06014 23.2454 5.27694C23.1364 5.49374 22.8728 5.58104 22.6559 5.47206C20.2553 4.2662 17.6942 3.65448 15.044 3.65448H14.9637C9.67445 3.67968 4.63656 6.23085 1.1432 10.6547C0.724842 11.1838 0.818592 12.0064 1.3184 12.4113C1.75199 12.7629 2.32738 12.6773 2.66781 12.2467C5.77211 8.31385 10.258 6.04569 14.9748 6.02343H15.0463C19.7356 6.02343 24.2162 8.2494 27.3399 12.1307C27.6851 12.5596 28.2621 12.6369 28.6893 12.2842C29.1903 11.8705 29.2705 11.0473 28.8498 10.5246C27.5584 8.9203 26.0579 7.55624 24.3897 6.46932C24.1864 6.3369 24.1289 6.06444 24.2614 5.86112C24.3938 5.6578 24.6663 5.60038 24.8696 5.7328C26.6157 6.8701 28.1848 8.29686 29.5342 9.97323Z" fill="#393939"/>
<path d="M24.7241 13.8088C25.5063 14.6994 25.3979 16.1268 24.5003 16.868C23.7233 17.5096 22.6247 17.4088 21.9427 16.6342C20.104 14.5465 17.6519 13.3981 15.0333 13.3981C15.0193 13.3981 15.0052 13.3981 14.9911 13.3981C12.3568 13.4104 9.89876 14.5829 8.07004 16.6993C7.39563 17.4798 6.29758 17.5917 5.51594 16.9583L5.51477 16.9571C4.6095 16.2235 4.48938 14.7974 5.26223 13.9003C7.72786 11.038 11.179 9.28953 14.9718 9.27136C18.7891 9.25431 22.2485 10.9881 24.7241 13.8088ZM23.9395 16.1912C24.4581 15.7629 24.5184 14.9063 24.0637 14.3883C21.6637 11.6537 18.4574 10.1502 15.0309 10.1502C15.0128 10.1502 14.9946 10.1502 14.9764 10.1502C11.5288 10.1666 8.31549 11.7018 5.92838 14.4733C5.71042 14.7264 5.60378 15.0739 5.63542 15.4267C5.66588 15.7671 5.8235 16.0759 6.06784 16.2739C6.06784 16.2739 6.06784 16.2745 6.06842 16.2745L6.06901 16.2751C6.48034 16.608 7.04225 16.5452 7.40495 16.1246C9.40241 13.813 12.0948 12.5328 14.987 12.5193H15.0333C17.9079 12.5193 20.5945 13.7732 22.6025 16.0537C22.9692 16.4701 23.5317 16.5282 23.9395 16.1912Z" fill="#393939"/>
<path d="M19.7524 17.5904C20.1942 17.9783 20.448 18.556 20.448 19.1748C20.448 19.8258 20.1743 20.4252 19.6973 20.8189C18.9766 21.4142 18.0017 21.3569 17.3301 20.7762C16.9346 20.434 16.4911 20.1862 16.0112 20.0408C15.7785 19.97 15.6473 19.7244 15.7182 19.4924C15.7885 19.2604 16.0341 19.1291 16.2661 19.1994C16.8643 19.3811 17.4163 19.6881 17.905 20.1112C18.2671 20.4241 18.7622 20.4516 19.1378 20.1417C19.7021 19.6753 19.7132 18.7255 19.1724 18.2509C17.9759 17.2008 16.5386 16.6459 15.0169 16.6459H14.9888C13.4554 16.653 12.014 17.2219 10.8186 18.2901C10.2737 18.777 10.3136 19.7286 10.8714 20.1804C11.247 20.4844 11.7421 20.4574 12.103 20.1388C12.6573 19.6501 13.3165 19.3026 14.0097 19.135C14.2452 19.0776 14.4831 19.2229 14.5399 19.4585C14.5974 19.6946 14.452 19.9319 14.2165 19.9894C13.6622 20.1236 13.1319 20.4031 12.6843 20.798C12.0116 21.3915 11.0372 21.446 10.3182 20.863C9.32391 20.058 9.29872 18.4707 10.2327 17.6351C11.571 16.4386 13.2585 15.7754 14.9841 15.7671H15.0169C16.7302 15.767 18.4124 16.4144 19.7524 17.5904Z" fill="#393939"/>
<path d="M15.0001 22.6669C16.2528 22.6669 17.2712 23.6894 17.2712 24.9457C17.2712 26.2025 16.2528 27.2244 15.0001 27.2244C13.7479 27.2244 12.729 26.2026 12.729 24.9457C12.729 23.6895 13.7479 22.6669 15.0001 22.6669ZM16.3923 24.9457C16.3923 24.174 15.7677 23.5458 15.0001 23.5458C14.2325 23.5458 13.6079 24.174 13.6079 24.9457C13.6079 25.718 14.2325 26.3455 15.0001 26.3455C15.7677 26.3455 16.3923 25.718 16.3923 24.9457Z" fill="#393939"/>
</g>
<defs>
<clipPath id="clip0_20_32">
<rect width="30" height="30" fill="white"/>
</clipPath>
</defs>
</svg>
