<svg width="15" height="15" viewBox="0 0 15 15" fill="none" xmlns="http://www.w3.org/2000/svg">
<path d="M14.8571 6.0625C14.8571 6.19345 14.7798 6.33631 14.625 6.49107L11.3839 9.65179L12.1518 14.1161C12.1577 14.1577 12.1607 14.2173 12.1607 14.2946C12.1607 14.4196 12.128 14.5238 12.0625 14.6071C12.003 14.6964 11.9137 14.7411 11.7946 14.7411C11.6815 14.7411 11.5625 14.7054 11.4375 14.6339L7.42857 12.5268L3.41964 14.6339C3.28869 14.7054 3.16964 14.7411 3.0625 14.7411C2.9375 14.7411 2.84226 14.6964 2.77679 14.6071C2.71726 14.5238 2.6875 14.4196 2.6875 14.2946C2.6875 14.2589 2.69345 14.1994 2.70536 14.1161L3.47321 9.65179L0.223214 6.49107C0.0744048 6.33036 0 6.1875 0 6.0625C0 5.84226 0.166667 5.70536 0.5 5.65178L4.98214 5L6.99107 0.937499C7.10417 0.693452 7.25 0.571428 7.42857 0.571428C7.60714 0.571428 7.75298 0.693452 7.86607 0.937499L9.875 5L14.3571 5.65178C14.6905 5.70536 14.8571 5.84226 14.8571 6.0625Z" fill="#039BE5"/>
</svg>
