<svg width="23" height="21" viewBox="0 0 23 21" fill="none" xmlns="http://www.w3.org/2000/svg">
<path d="M22.5446 0.97991C22.753 1.12872 22.8571 1.32589 22.8571 1.57143V17.2857C22.8571 17.4345 22.8162 17.5685 22.7344 17.6875C22.6525 17.8065 22.5446 17.8921 22.4107 17.9442L15.2679 20.8013C15.0893 20.8832 14.9107 20.8832 14.7321 20.8013L7.85714 18.0558L0.982143 20.8013C0.907738 20.8385 0.818452 20.8571 0.714286 20.8571C0.572917 20.8571 0.438988 20.8162 0.3125 20.7344C0.104167 20.5856 0 20.3884 0 20.1429V4.42857C0 4.27976 0.0409226 4.14583 0.122768 4.02679C0.204613 3.90774 0.3125 3.82217 0.446429 3.77009L7.58929 0.912946C7.76786 0.831101 7.94643 0.831101 8.125 0.912946L15 3.65848L21.875 0.912946C22.1131 0.816219 22.3363 0.838541 22.5446 0.97991ZM8.21429 2.48661V16.6607L14.6429 19.2277V5.05357L8.21429 2.48661ZM1.42857 4.90848V19.0826L7.5 16.6607V2.48661L1.42857 4.90848ZM21.4286 16.8058V2.6317L15.3571 5.05357V19.2277L21.4286 16.8058Z" fill="white"/>
</svg>
