<svg width="180" height="35" viewBox="0 0 180 35" fill="none" xmlns="http://www.w3.org/2000/svg">
<path d="M39.125 26V8.25H46.725C47.5083 8.25 48.225 8.41667 48.875 8.75C49.525 9.06667 50.0917 9.5 50.575 10.05C51.0583 10.5833 51.4333 11.1917 51.7 11.875C51.9667 12.5417 52.1 13.225 52.1 13.925C52.1 14.7417 51.9417 15.5167 51.625 16.25C51.325 16.9833 50.8917 17.6083 50.325 18.125C49.775 18.6417 49.125 19 48.375 19.2L52.675 26H50.125L46.075 19.625H41.375V26H39.125ZM41.375 17.625H46.75C47.3667 17.625 47.9 17.4583 48.35 17.125C48.8167 16.775 49.175 16.3167 49.425 15.75C49.6917 15.1833 49.825 14.575 49.825 13.925C49.825 13.2583 49.675 12.65 49.375 12.1C49.075 11.5333 48.6833 11.0833 48.2 10.75C47.7167 10.4167 47.1833 10.25 46.6 10.25H41.375V17.625ZM67.6057 24V26H55.5557V8.25H67.3807V10.25H57.8057V16H66.1307V17.875H57.8057V24H67.6057ZM72.9424 12.4V26H70.6924V8.25H72.5924L83.4424 22.125V8.275H85.6924V26H83.6424L72.9424 12.4ZM102.731 10.25H96.6057V26H94.3557V10.25H88.2307V8.25H102.731V10.25Z" fill="white"/>
<path d="M105.187 26V8.25H107.987V15.675H110.062L115.637 8.25H118.837L112.312 16.85L119.312 26H115.887L110.062 18.25H107.987V26H105.187ZM121.886 26V8.25H129.336C130.136 8.25 130.869 8.41667 131.536 8.75C132.219 9.08333 132.802 9.525 133.286 10.075C133.786 10.625 134.169 11.2417 134.436 11.925C134.702 12.6083 134.836 13.3083 134.836 14.025C134.836 15.025 134.611 15.9667 134.161 16.85C133.711 17.7333 133.086 18.45 132.286 19C131.486 19.55 130.552 19.825 129.486 19.825H124.686V26H121.886ZM124.686 17.35H129.311C130.094 17.35 130.736 17.0333 131.236 16.4C131.736 15.7667 131.986 14.975 131.986 14.025C131.986 13.375 131.852 12.8083 131.586 12.325C131.319 11.825 130.969 11.4333 130.536 11.15C130.119 10.8667 129.661 10.725 129.161 10.725H124.686V17.35ZM137.462 26V8.25H140.262V14.8H144.237C146.187 14.8 147.67 15.3083 148.687 16.325C149.72 17.3417 150.237 18.6917 150.237 20.375C150.237 21.4583 150.012 22.425 149.562 23.275C149.112 24.125 148.454 24.7917 147.587 25.275C146.72 25.7583 145.662 26 144.412 26H137.462ZM153.037 26V8.275H155.862V26H153.037ZM140.262 23.675H144.012C145.195 23.675 146.045 23.35 146.562 22.7C147.095 22.0333 147.362 21.2583 147.362 20.375C147.362 19.8083 147.254 19.2833 147.037 18.8C146.82 18.3 146.47 17.9 145.987 17.6C145.504 17.2833 144.837 17.125 143.987 17.125H140.262V23.675ZM174.75 26V13.35L169.525 22.95H167.875L162.625 13.35V26H159.825V8.25H162.825L168.7 19.1L174.575 8.25H177.575V26H174.75Z" fill="#0397E3"/>
<path d="M6.42857 24.25V25.3214C6.42857 25.4665 6.37277 25.5949 6.26116 25.7065C6.16071 25.8069 6.03795 25.8571 5.89286 25.8571H4.82143C4.67634 25.8571 4.54799 25.8069 4.43638 25.7065C4.33594 25.5949 4.28571 25.4665 4.28571 25.3214V24.25C4.28571 24.1049 4.33594 23.9821 4.43638 23.8817C4.54799 23.7701 4.67634 23.7143 4.82143 23.7143H5.89286C6.03795 23.7143 6.16071 23.7701 6.26116 23.8817C6.37277 23.9821 6.42857 24.1049 6.42857 24.25ZM6.42857 19.9643V21.0357C6.42857 21.1808 6.37277 21.3092 6.26116 21.4208C6.16071 21.5212 6.03795 21.5714 5.89286 21.5714H4.82143C4.67634 21.5714 4.54799 21.5212 4.43638 21.4208C4.33594 21.3092 4.28571 21.1808 4.28571 21.0357V19.9643C4.28571 19.8192 4.33594 19.6964 4.43638 19.596C4.54799 19.4844 4.67634 19.4286 4.82143 19.4286H5.89286C6.03795 19.4286 6.16071 19.4844 6.26116 19.596C6.37277 19.6964 6.42857 19.8192 6.42857 19.9643ZM10.7143 19.9643V21.0357C10.7143 21.1808 10.6585 21.3092 10.5469 21.4208C10.4464 21.5212 10.3237 21.5714 10.1786 21.5714H9.10714C8.96205 21.5714 8.83371 21.5212 8.7221 21.4208C8.62165 21.3092 8.57143 21.1808 8.57143 21.0357V19.9643C8.57143 19.8192 8.62165 19.6964 8.7221 19.596C8.83371 19.4844 8.96205 19.4286 9.10714 19.4286H10.1786C10.3237 19.4286 10.4464 19.4844 10.5469 19.596C10.6585 19.6964 10.7143 19.8192 10.7143 19.9643ZM6.42857 15.6786V16.75C6.42857 16.8951 6.37277 17.0234 6.26116 17.135C6.16071 17.2355 6.03795 17.2857 5.89286 17.2857H4.82143C4.67634 17.2857 4.54799 17.2355 4.43638 17.135C4.33594 17.0234 4.28571 16.8951 4.28571 16.75V15.6786C4.28571 15.5335 4.33594 15.4107 4.43638 15.3103C4.54799 15.1987 4.67634 15.1429 4.82143 15.1429H5.89286C6.03795 15.1429 6.16071 15.1987 6.26116 15.3103C6.37277 15.4107 6.42857 15.5335 6.42857 15.6786ZM19.2857 24.25V25.3214C19.2857 25.4665 19.2299 25.5949 19.1183 25.7065C19.0179 25.8069 18.8951 25.8571 18.75 25.8571H17.6786C17.5335 25.8571 17.4051 25.8069 17.2935 25.7065C17.1931 25.5949 17.1429 25.4665 17.1429 25.3214V24.25C17.1429 24.1049 17.1931 23.9821 17.2935 23.8817C17.4051 23.7701 17.5335 23.7143 17.6786 23.7143H18.75C18.8951 23.7143 19.0179 23.7701 19.1183 23.8817C19.2299 23.9821 19.2857 24.1049 19.2857 24.25ZM15 19.9643V21.0357C15 21.1808 14.9442 21.3092 14.8326 21.4208C14.7321 21.5212 14.6094 21.5714 14.4643 21.5714H13.3929C13.2478 21.5714 13.1194 21.5212 13.0078 21.4208C12.9074 21.3092 12.8571 21.1808 12.8571 21.0357V19.9643C12.8571 19.8192 12.9074 19.6964 13.0078 19.596C13.1194 19.4844 13.2478 19.4286 13.3929 19.4286H14.4643C14.6094 19.4286 14.7321 19.4844 14.8326 19.596C14.9442 19.6964 15 19.8192 15 19.9643ZM10.7143 15.6786V16.75C10.7143 16.8951 10.6585 17.0234 10.5469 17.135C10.4464 17.2355 10.3237 17.2857 10.1786 17.2857H9.10714C8.96205 17.2857 8.83371 17.2355 8.7221 17.135C8.62165 17.0234 8.57143 16.8951 8.57143 16.75V15.6786C8.57143 15.5335 8.62165 15.4107 8.7221 15.3103C8.83371 15.1987 8.96205 15.1429 9.10714 15.1429H10.1786C10.3237 15.1429 10.4464 15.1987 10.5469 15.3103C10.6585 15.4107 10.7143 15.5335 10.7143 15.6786ZM6.42857 11.3929V12.4643C6.42857 12.6094 6.37277 12.7377 6.26116 12.8493C6.16071 12.9498 6.03795 13 5.89286 13H4.82143C4.67634 13 4.54799 12.9498 4.43638 12.8493C4.33594 12.7377 4.28571 12.6094 4.28571 12.4643V11.3929C4.28571 11.2478 4.33594 11.125 4.43638 11.0246C4.54799 10.9129 4.67634 10.8571 4.82143 10.8571H5.89286C6.03795 10.8571 6.16071 10.9129 6.26116 11.0246C6.37277 11.125 6.42857 11.2478 6.42857 11.3929ZM19.2857 19.9643V21.0357C19.2857 21.1808 19.2299 21.3092 19.1183 21.4208C19.0179 21.5212 18.8951 21.5714 18.75 21.5714H17.6786C17.5335 21.5714 17.4051 21.5212 17.2935 21.4208C17.1931 21.3092 17.1429 21.1808 17.1429 21.0357V19.9643C17.1429 19.8192 17.1931 19.6964 17.2935 19.596C17.4051 19.4844 17.5335 19.4286 17.6786 19.4286H18.75C18.8951 19.4286 19.0179 19.4844 19.1183 19.596C19.2299 19.6964 19.2857 19.8192 19.2857 19.9643ZM15 15.6786V16.75C15 16.8951 14.9442 17.0234 14.8326 17.135C14.7321 17.2355 14.6094 17.2857 14.4643 17.2857H13.3929C13.2478 17.2857 13.1194 17.2355 13.0078 17.135C12.9074 17.0234 12.8571 16.8951 12.8571 16.75V15.6786C12.8571 15.5335 12.9074 15.4107 13.0078 15.3103C13.1194 15.1987 13.2478 15.1429 13.3929 15.1429H14.4643C14.6094 15.1429 14.7321 15.1987 14.8326 15.3103C14.9442 15.4107 15 15.5335 15 15.6786ZM10.7143 11.3929V12.4643C10.7143 12.6094 10.6585 12.7377 10.5469 12.8493C10.4464 12.9498 10.3237 13 10.1786 13H9.10714C8.96205 13 8.83371 12.9498 8.7221 12.8493C8.62165 12.7377 8.57143 12.6094 8.57143 12.4643V11.3929C8.57143 11.2478 8.62165 11.125 8.7221 11.0246C8.83371 10.9129 8.96205 10.8571 9.10714 10.8571H10.1786C10.3237 10.8571 10.4464 10.9129 10.5469 11.0246C10.6585 11.125 10.7143 11.2478 10.7143 11.3929ZM6.42857 7.10714V8.17857C6.42857 8.32366 6.37277 8.45201 6.26116 8.56362C6.16071 8.66406 6.03795 8.71428 5.89286 8.71428H4.82143C4.67634 8.71428 4.54799 8.66406 4.43638 8.56362C4.33594 8.45201 4.28571 8.32366 4.28571 8.17857V7.10714C4.28571 6.96205 4.33594 6.83928 4.43638 6.73884C4.54799 6.62723 4.67634 6.57143 4.82143 6.57143H5.89286C6.03795 6.57143 6.16071 6.62723 6.26116 6.73884C6.37277 6.83928 6.42857 6.96205 6.42857 7.10714ZM19.2857 15.6786V16.75C19.2857 16.8951 19.2299 17.0234 19.1183 17.135C19.0179 17.2355 18.8951 17.2857 18.75 17.2857H17.6786C17.5335 17.2857 17.4051 17.2355 17.2935 17.135C17.1931 17.0234 17.1429 16.8951 17.1429 16.75V15.6786C17.1429 15.5335 17.1931 15.4107 17.2935 15.3103C17.4051 15.1987 17.5335 15.1429 17.6786 15.1429H18.75C18.8951 15.1429 19.0179 15.1987 19.1183 15.3103C19.2299 15.4107 19.2857 15.5335 19.2857 15.6786ZM15 11.3929V12.4643C15 12.6094 14.9442 12.7377 14.8326 12.8493C14.7321 12.9498 14.6094 13 14.4643 13H13.3929C13.2478 13 13.1194 12.9498 13.0078 12.8493C12.9074 12.7377 12.8571 12.6094 12.8571 12.4643V11.3929C12.8571 11.2478 12.9074 11.125 13.0078 11.0246C13.1194 10.9129 13.2478 10.8571 13.3929 10.8571H14.4643C14.6094 10.8571 14.7321 10.9129 14.8326 11.0246C14.9442 11.125 15 11.2478 15 11.3929ZM10.7143 7.10714V8.17857C10.7143 8.32366 10.6585 8.45201 10.5469 8.56362C10.4464 8.66406 10.3237 8.71428 10.1786 8.71428H9.10714C8.96205 8.71428 8.83371 8.66406 8.7221 8.56362C8.62165 8.45201 8.57143 8.32366 8.57143 8.17857V7.10714C8.57143 6.96205 8.62165 6.83928 8.7221 6.73884C8.83371 6.62723 8.96205 6.57143 9.10714 6.57143H10.1786C10.3237 6.57143 10.4464 6.62723 10.5469 6.73884C10.6585 6.83928 10.7143 6.96205 10.7143 7.10714ZM19.2857 11.3929V12.4643C19.2857 12.6094 19.2299 12.7377 19.1183 12.8493C19.0179 12.9498 18.8951 13 18.75 13H17.6786C17.5335 13 17.4051 12.9498 17.2935 12.8493C17.1931 12.7377 17.1429 12.6094 17.1429 12.4643V11.3929C17.1429 11.2478 17.1931 11.125 17.2935 11.0246C17.4051 10.9129 17.5335 10.8571 17.6786 10.8571H18.75C18.8951 10.8571 19.0179 10.9129 19.1183 11.0246C19.2299 11.125 19.2857 11.2478 19.2857 11.3929ZM15 7.10714V8.17857C15 8.32366 14.9442 8.45201 14.8326 8.56362C14.7321 8.66406 14.6094 8.71428 14.4643 8.71428H13.3929C13.2478 8.71428 13.1194 8.66406 13.0078 8.56362C12.9074 8.45201 12.8571 8.32366 12.8571 8.17857V7.10714C12.8571 6.96205 12.9074 6.83928 13.0078 6.73884C13.1194 6.62723 13.2478 6.57143 13.3929 6.57143H14.4643C14.6094 6.57143 14.7321 6.62723 14.8326 6.73884C14.9442 6.83928 15 6.96205 15 7.10714ZM19.2857 7.10714V8.17857C19.2857 8.32366 19.2299 8.45201 19.1183 8.56362C19.0179 8.66406 18.8951 8.71428 18.75 8.71428H17.6786C17.5335 8.71428 17.4051 8.66406 17.2935 8.56362C17.1931 8.45201 17.1429 8.32366 17.1429 8.17857V7.10714C17.1429 6.96205 17.1931 6.83928 17.2935 6.73884C17.4051 6.62723 17.5335 6.57143 17.6786 6.57143H18.75C18.8951 6.57143 19.0179 6.62723 19.1183 6.73884C19.2299 6.83928 19.2857 6.96205 19.2857 7.10714ZM15 30.1429H21.4286V4.42857H2.14286V30.1429H8.57143V26.3929C8.57143 26.2478 8.62165 26.125 8.7221 26.0246C8.83371 25.9129 8.96205 25.8571 9.10714 25.8571H14.4643C14.6094 25.8571 14.7321 25.9129 14.8326 26.0246C14.9442 26.125 15 26.2478 15 26.3929V30.1429ZM23.5714 3.35714V31.2143C23.5714 31.5045 23.4654 31.7556 23.2533 31.9676C23.0413 32.1797 22.7902 32.2857 22.5 32.2857H1.07143C0.78125 32.2857 0.530134 32.1797 0.31808 31.9676C0.106027 31.7556 0 31.5045 0 31.2143V3.35714C0 3.06696 0.106027 2.81585 0.31808 2.60379C0.530134 2.39174 0.78125 2.28571 1.07143 2.28571H22.5C22.7902 2.28571 23.0413 2.39174 23.2533 2.60379C23.4654 2.81585 23.5714 3.06696 23.5714 3.35714Z" fill="white"/>
</svg>
